<svg xmlns="http://www.w3.org/2000/svg" viewBox="0 0 1200 250" width="1200" height="250" role="img" aria-label="Stack: HTML, CSS, JavaScript, React, Next.js, Tailwind CSS">
  <defs>
    <linearGradient id="span" gradientUnits="userSpaceOnUse" x1="46" y1="0" x2="1154" y2="0">
      <stop offset="0%" stop-color="#7C3AED"/>
      <stop offset="50%" stop-color="#6366F1"/>
      <stop offset="100%" stop-color="#0891B2"/>
    </linearGradient>
    <radialGradient id="g1" cx="50%" cy="50%" r="50%">
      <stop offset="0%" stop-color="#7C3AED" stop-opacity="0.14"/>
      <stop offset="100%" stop-color="#7C3AED" stop-opacity="0"/>
    </radialGradient>
    <radialGradient id="g2" cx="50%" cy="50%" r="50%">
      <stop offset="0%" stop-color="#06B6D4" stop-opacity="0.14"/>
      <stop offset="100%" stop-color="#06B6D4" stop-opacity="0"/>
    </radialGradient>
    <pattern id="grid" width="34" height="34" patternUnits="userSpaceOnUse">
      <path d="M34 0H0V34" fill="none" stroke="#0F172A" stroke-opacity="0.055" stroke-width="1"/>
    </pattern>
    <clipPath id="card"><rect x="0" y="0" width="1200" height="250" rx="20"/></clipPath>
  </defs>

  <g clip-path="url(#card)">
    <rect width="1200" height="250" fill="#FDFDFF"/>
    <rect width="1200" height="250" fill="url(#grid)"/>
    <ellipse cx="60" cy="250" rx="360" ry="200" fill="url(#g1)"/>
    <ellipse cx="1160" cy="0" rx="360" ry="200" fill="url(#g2)"/>

    <text x="46" y="56" font-family="'Segoe UI',Roboto,'Helvetica Neue',Arial,sans-serif" font-size="15" font-weight="600" letter-spacing="3.8" fill="#7A83A6">STACK</text>
    <text x="1154" y="56" text-anchor="end" font-family="'Segoe UI',Roboto,'Helvetica Neue',Arial,sans-serif" font-size="15" font-weight="600" letter-spacing="3.8" fill="#9AA1BC">EVERYDAY TOOLING</text>

    <g fill="#0F172A" fill-opacity="0.025" stroke="#0F172A" stroke-opacity="0.10" stroke-width="1">
      <rect x="46"  y="84" width="168" height="120" rx="16"/>
      <rect x="234" y="84" width="168" height="120" rx="16"/>
      <rect x="422" y="84" width="168" height="120" rx="16"/>
      <rect x="610" y="84" width="168" height="120" rx="16"/>
      <rect x="798" y="84" width="168" height="120" rx="16"/>
      <rect x="986" y="84" width="168" height="120" rx="16"/>
    </g>

    <g fill="none" stroke="url(#span)" stroke-width="2.6" stroke-linecap="round" stroke-linejoin="round">
      <!-- HTML  </> -->
      <g transform="translate(108,106)">
        <path d="M14 12 L3 22 L14 32"/>
        <path d="M30 12 L41 22 L30 32"/>
        <path d="M27 7 L17 37"/>
      </g>
      <!-- CSS  { . } -->
      <g transform="translate(296,106)">
        <path d="M16 8 C11 8 11 10 11 14 C11 19 11 21.5 5 22 C11 22.5 11 25 11 30 C11 34 11 36 16 36"/>
        <path d="M28 8 C33 8 33 10 33 14 C33 19 33 21.5 39 22 C33 22.5 33 25 33 30 C33 34 33 36 28 36"/>
        <circle cx="22" cy="22" r="1.9" fill="url(#span)" stroke="none"/>
      </g>
      <!-- JavaScript -->
      <g transform="translate(484,106)">
        <rect x="5" y="5" width="34" height="34" rx="9"/>
        <text x="22" y="28.5" text-anchor="middle" font-family="'Segoe UI',Roboto,'Helvetica Neue',Arial,sans-serif" font-size="15" font-weight="700" fill="url(#span)" stroke="none">JS</text>
      </g>
      <!-- React -->
      <g transform="translate(672,106)">
        <ellipse cx="22" cy="22" rx="19" ry="7.4" stroke-width="2.2"/>
        <ellipse cx="22" cy="22" rx="19" ry="7.4" stroke-width="2.2" transform="rotate(60 22 22)"/>
        <ellipse cx="22" cy="22" rx="19" ry="7.4" stroke-width="2.2" transform="rotate(120 22 22)"/>
        <circle cx="22" cy="22" r="3.6" fill="url(#span)" stroke="none"/>
      </g>
      <!-- Next.js -->
      <g transform="translate(860,106)">
        <circle cx="22" cy="22" r="17" stroke-width="2.2"/>
        <path d="M15.5 30.5 L15.5 13.5 L29 31 M29 24 L29 13.5" stroke-width="2.4"/>
      </g>
      <!-- Tailwind -->
      <g transform="translate(1048,106)">
        <path d="M4 19 C8.5 8 15 7 21 13.5 C25 17.5 29 18.5 33 15.5" stroke-width="3"/>
        <path d="M11 34 C15.5 23 22 22 28 28.5 C32 32.5 36 33.5 40 30.5" stroke-width="3"/>
      </g>
    </g>

    <g font-family="'Segoe UI',Roboto,'Helvetica Neue',Arial,sans-serif" font-size="18" font-weight="600" letter-spacing="0.4" fill="#3F4A66" text-anchor="middle">
      <text x="130"  y="184">HTML</text>
      <text x="318"  y="184">CSS</text>
      <text x="506"  y="184">JavaScript</text>
      <text x="694"  y="184">React</text>
      <text x="882"  y="184">Next.js</text>
      <text x="1070" y="184">Tailwind</text>
    </g>

    <rect x="0" y="247" width="1200" height="3" fill="url(#span)"/>
  </g>
  <rect x="0.5" y="0.5" width="1199" height="249" rx="20" fill="none" stroke="#0F172A" stroke-opacity="0.10"/>
</svg>
